<svg width="20" height="20" viewBox="0 0 20 20" fill="none" xmlns="http://www.w3.org/2000/svg">
<path d="M19.7029 4.11464C19.0071 4.42297 18.2596 4.6313 17.4737 4.72547C18.2846 4.2403 18.8912 3.47669 19.1804 2.57714C18.4186 3.02963 17.5849 3.34813 16.7154 3.5188C16.1307 2.89453 15.3563 2.48074 14.5124 2.3417C13.6684 2.20266 12.8022 2.34613 12.0481 2.74985C11.2941 3.15357 10.6944 3.79494 10.3422 4.57439C9.99003 5.35384 9.90503 6.22776 10.1004 7.06047C8.55683 6.98292 7.0468 6.58169 5.66831 5.88282C4.28981 5.18395 3.07365 4.20307 2.09875 3.0038C1.76542 3.5788 1.57375 4.24547 1.57375 4.95547C1.57338 5.59463 1.73078 6.22401 2.03198 6.78775C2.33319 7.35149 2.76888 7.83217 3.30042 8.18714C2.68399 8.16743 2.08118 8.00087 1.54208 7.7013V7.7513C1.54202 8.64775 1.85211 9.51662 2.41974 10.2105C2.98736 10.9043 3.77756 11.3804 4.65625 11.558C4.08437 11.7125 3.48488 11.7353 2.90292 11.6246C3.15072 12.396 3.63361 13.0706 4.28394 13.5539C4.93428 14.0372 5.71948 14.3049 6.52958 14.3196C5.15438 15.399 3.45613 15.9846 1.70792 15.9821C1.39826 15.9813 1.08889 15.9632 0.78125 15.928C2.55631 17.0679 4.6217 17.6733 6.73125 17.6721C13.8729 17.6721 17.7771 11.7571 17.7771 6.62714C17.7771 6.45992 17.7732 6.29269 17.7654 6.12547C18.5245 5.57588 19.1799 4.89588 19.7013 4.11714L19.7029 4.11464Z" fill="#161616"/>
</svg>
