<svg width="20" height="20" viewBox="0 0 20 20" fill="none" xmlns="http://www.w3.org/2000/svg">
<path fill-rule="evenodd" clip-rule="evenodd" d="M7.8588 7.47449H10.9538V9.01616C11.3996 8.12949 12.543 7.33283 14.2605 7.33283C17.553 7.33283 18.3346 9.09783 18.3346 12.3362V18.3337H15.0013V13.0737C15.0013 11.2295 14.5555 10.1895 13.4205 10.1895C11.8463 10.1895 11.1921 11.3103 11.1921 13.0728V18.3337H7.8588V7.47449ZM2.14297 18.192H5.4763V7.33283H2.14297V18.192ZM5.9538 3.79199C5.95393 4.07139 5.89852 4.34802 5.79079 4.60582C5.68307 4.86361 5.52518 5.09742 5.3263 5.29366C5.12683 5.49209 4.89022 5.64927 4.62999 5.75623C4.36975 5.86318 4.09099 5.91781 3.80964 5.91699C3.24264 5.91572 2.69873 5.69223 2.29464 5.29449C2.09655 5.09753 1.93925 4.86345 1.83172 4.60563C1.72419 4.34782 1.66854 4.07133 1.66797 3.79199C1.66797 3.22783 1.89297 2.68783 2.29547 2.28949C2.69855 1.89023 3.24312 1.66647 3.81047 1.66699C4.3788 1.66699 4.9238 1.89116 5.3263 2.28949C5.7288 2.68783 5.9538 3.22783 5.9538 3.79199Z" fill="white"/>
</svg>
