<svg width="24" height="56" viewBox="0 0 24 56" fill="none" xmlns="http://www.w3.org/2000/svg">
<path d="M24 33.625C24 35.2007 23.6898 36.761 23.0869 38.2168C22.4839 39.6727 21.5997 40.996 20.4854 42.1104C19.371 43.2247 18.0477 44.1089 16.5918 44.7119C15.136 45.3148 13.5757 45.625 12 45.625C10.4243 45.625 8.86398 45.3148 7.4082 44.7119C5.9523 44.1089 4.62895 43.2247 3.51465 42.1104C2.40035 40.996 1.51614 39.6727 0.913086 38.2168C0.310158 36.761 0 35.2007 0 33.625H5.25C5.25 35.4152 5.96069 37.1326 7.22656 38.3984C8.49243 39.6643 10.2098 40.375 12 40.375C13.7902 40.375 15.5076 39.6643 16.7734 38.3984C18.0393 37.1326 18.75 35.4152 18.75 33.625H24Z" fill="#161616"/>
<path d="M12 10.375C18.6274 10.375 24 15.7476 24 22.375C24 29.0024 18.6274 34.375 12 34.375C5.37258 34.375 0 29.0024 0 22.375C0 15.7476 5.37258 10.375 12 10.375ZM12 15.625C8.27208 15.625 5.25 18.6471 5.25 22.375C5.25 26.1029 8.27208 29.125 12 29.125C15.7279 29.125 18.75 26.1029 18.75 22.375C18.75 18.6471 15.7279 15.625 12 15.625Z" fill="#161616"/>
</svg>
