<svg width="33" height="48" viewBox="0 0 33 48" fill="none" xmlns="http://www.w3.org/2000/svg">
<path d="M32.6807 31.6602C32.6806 33.8059 32.2576 35.9307 31.4365 37.9131C30.6154 39.8955 29.4118 41.6966 27.8945 43.2139C26.3772 44.7312 24.5753 45.9347 22.5928 46.7559C20.6103 47.577 18.4856 48 16.3398 48C14.1941 48 12.0694 47.577 10.0869 46.7559C8.10449 45.9347 6.30343 44.7311 4.78613 43.2139C3.26879 41.6965 2.06434 39.8956 1.24316 37.9131C0.422038 35.9307 5.66001e-05 33.8059 0 31.6602H7.14844C7.1487 34.0974 8.11654 36.4347 9.83984 38.1582C11.5636 39.8819 13.9021 40.8506 16.3398 40.8506C18.7774 40.8505 21.1152 39.8819 22.8389 38.1582C24.5623 36.4347 25.531 34.0975 25.5312 31.6602H32.6807Z" fill="white"/>
<path d="M16.3398 0C25.3644 0 32.6807 7.31628 32.6807 16.3408C32.6805 25.3652 25.3643 32.6807 16.3398 32.6807C7.31549 32.6806 0.000155662 25.3652 0 16.3408C0 7.31634 7.31539 0.000109949 16.3398 0ZM16.3398 7.14844C11.2636 7.14844 7.14851 11.2636 7.14844 16.3398C7.14844 21.4161 11.2635 25.5312 16.3398 25.5312C21.416 25.5311 25.5312 21.416 25.5312 16.3398C25.5312 11.2637 21.4159 7.14862 16.3398 7.14844Z" fill="white"/>
</svg>
