<svg width="20" height="20" viewBox="0 0 20 20" fill="none" xmlns="http://www.w3.org/2000/svg">
<path d="M19.5817 5.15493C19.4684 4.72948 19.2454 4.3412 18.9351 4.02885C18.6248 3.7165 18.238 3.49103 17.8133 3.37493C16.2542 2.9541 10 2.9541 10 2.9541C10 2.9541 3.74583 2.9541 2.18583 3.37493C1.76129 3.49115 1.37465 3.71669 1.0645 4.02902C0.754359 4.34136 0.531556 4.72958 0.418333 5.15493C0 6.72493 0 9.99993 0 9.99993C0 9.99993 0 13.2749 0.418333 14.8449C0.531629 15.2704 0.754557 15.6587 1.06486 15.971C1.37516 16.2834 1.76197 16.5088 2.18667 16.6249C3.74583 17.0458 10 17.0458 10 17.0458C10 17.0458 16.2542 17.0458 17.8142 16.6249C18.2389 16.5088 18.6257 16.2834 18.936 15.971C19.2463 15.6587 19.4692 15.2704 19.5825 14.8449C20 13.2749 20 9.99993 20 9.99993C20 9.99993 20 6.72493 19.5817 5.15493ZM7.95417 12.9733V7.0266L13.1817 9.99993L7.95417 12.9733Z" fill="white"/>
</svg>
